<?xml version="1.0" encoding="UTF-8"?>
<svg width="14px" height="14px" viewBox="0 0 14 14" version="1.1" xmlns="http://www.w3.org/2000/svg" xmlns:xlink="http://www.w3.org/1999/xlink">
    <title>Shape</title>
    <g id="页面-1" stroke="none" stroke-width="1" fill="none" fill-rule="evenodd" fill-opacity="0.25">
        <g id="参数详情" transform="translate(-1366.000000, -93.000000)" fill="#000000">
            <g id="编组备份" transform="translate(732.000000, 84.000000)">
                <g id="Group-9" transform="translate(388.000000, 0.000000)">
                    <path d="M259.817879,10.060771 L256.628419,13.2461949 C257.467423,14.2758582 257.970202,15.5886013 257.970202,17.0195534 C257.970202,20.3231863 255.291305,23 251.985101,23 C248.678897,23 246,20.3231863 246,17.0195534 C246,13.7159205 248.678897,11.0391068 251.985101,11.0391068 C253.410941,11.0391068 254.720036,11.5368292 255.747387,12.368959 L258.936847,9.18197978 C259.058261,9.06065993 259.217034,9 259.377363,9 C259.536135,9 259.696464,9.06065993 259.817879,9.18197978 C260.060707,9.42461949 260.060707,9.81813132 259.817879,10.060771 L259.817879,10.060771 Z M253.877919,12.5400511 C253.27863,12.2865237 252.641984,12.1589823 251.985101,12.1589823 C251.328219,12.1589823 250.691572,12.2880791 250.092284,12.5400511 C249.513231,12.7842462 248.993329,13.1357627 248.54503,13.5821575 C248.098288,14.0285524 247.746498,14.5496056 247.502113,15.128208 C247.248388,15.7270303 247.120747,16.3631819 247.120747,17.0195534 C247.120747,17.6759249 247.249944,18.3120764 247.502113,18.9108988 C247.746498,19.4895012 248.098288,20.008999 248.54503,20.4569492 C248.991772,20.9033441 249.513231,21.2548606 250.092284,21.4990557 C250.691572,21.752583 251.328219,21.8801244 251.985101,21.8801244 C252.641984,21.8801244 253.27863,21.7510277 253.877919,21.4990557 C254.456971,21.2548606 254.976873,20.9033441 255.425172,20.4569492 C255.871915,20.0105544 256.223705,19.4910565 256.46809,18.9108988 C256.721815,18.3120764 256.849455,17.6759249 256.849455,17.0195534 C256.849455,16.3631819 256.720258,15.7270303 256.46809,15.128208 C256.223705,14.5496056 255.871915,14.0301078 255.425172,13.5821575 C254.976873,13.1357627 254.456971,12.7858016 253.877919,12.5400511 L253.877919,12.5400511 Z" id="Shape" transform="translate(253.000000, 16.000000) scale(1, -1) translate(-253.000000, -16.000000) "></path>
                </g>
            </g>
        </g>
    </g>
</svg>