<?xml version="1.0" encoding="UTF-8"?>
<svg width="16px" height="16px" viewBox="0 0 16 16" version="1.1" xmlns="http://www.w3.org/2000/svg" xmlns:xlink="http://www.w3.org/1999/xlink">
    <title>其他设置</title>
    <g id="页面-1" stroke="none" stroke-width="1" fill="none" fill-rule="evenodd" stroke-linejoin="round">
        <g id="参数详情" transform="translate(-47.000000, -528.000000)" stroke="#1890FF" stroke-width="1.2">
            <g id="编组-2备份-2" transform="translate(48.000000, 524.000000)">
                <g id="其他设置" transform="translate(0.000000, 5.000000)">
                    <path d="M4.99933,13.456856 C3.826445,13.107661 2.78243,12.459356 1.9557545,11.600351 C2.26415,11.234846 2.45,10.762591 2.45,10.246936 C2.45,9.087141 1.5097985,8.146936 0.35,8.146936 C0.2798425,8.146936 0.2104865,8.150401 0.1420965,8.157121 C0.0489265,7.701596 0,7.230006 0,6.746936 C0,6.015226 0.1122695,5.309731 0.3205265,4.646726 C0.3303335,4.646866 0.340158,4.646936 0.35,4.646936 C1.5097985,4.646936 2.45,3.706731 2.45,2.546936 C2.45,2.213981 2.37251,1.899156 2.23461,1.6194395 C3.044125,0.866726 4.032175,0.303408 5.128235,0 C5.47554,0.6807675 6.183345,1.1469465 7,1.1469465 C7.816655,1.1469465 8.52446,0.6807675 8.871765,0 C9.967825,0.303408 10.955875,0.866726 11.76539,1.6194395 C11.62749,1.899156 11.55,2.213981 11.55,2.546936 C11.55,3.706731 12.490205,4.646936 13.65,4.646936 C13.659835,4.646936 13.66967,4.646866 13.67947,4.646726 C13.88772,5.309731 14,6.015226 14,6.746936 C14,7.230006 13.95107,7.701596 13.8579,8.157121 C13.78951,8.150401 13.720175,8.146936 13.65,8.146936 C12.490205,8.146936 11.55,9.087141 11.55,10.246936 C11.55,10.762591 11.73585,11.234846 12.044235,11.600351 C11.21757,12.459356 10.173555,13.107661 9.00067,13.456856 C8.72998,12.610101 7.9366,11.996936 7,11.996936 C6.0634,11.996936 5.27002,12.610101 4.99933,13.456856 Z" id="路径"></path>
                    <path d="M7,9.196901 C8.3531,9.196901 9.45,8.100001 9.45,6.746901 C9.45,5.393801 8.3531,4.296901 7,4.296901 C5.6469,4.296901 4.55,5.393801 4.55,6.746901 C4.55,8.100001 5.6469,9.196901 7,9.196901 Z" id="路径"></path>
                </g>
            </g>
        </g>
    </g>
</svg>