<?xml version="1.0" encoding="UTF-8"?>
<svg width="18px" height="18px" viewBox="0 0 18 18" version="1.1" xmlns="http://www.w3.org/2000/svg" xmlns:xlink="http://www.w3.org/1999/xlink">
    <title>复制链接_copy-link</title>
    <g id="页面-1" stroke="none" stroke-width="1" fill="none" fill-rule="evenodd" stroke-linejoin="round">
        <g id="0915_一页备份-2" transform="translate(-205.000000, -177.000000)">
            <g id="复制链接_copy-link" transform="translate(206.000000, 178.000000)">
                <rect id="矩形" stroke="#000000" fill="#000000" fill-rule="nonzero" opacity="0.3" x="0" y="0" width="16" height="16" rx="1"></rect>
                <path d="M6.79501176,6.16945882 L9.2856,3.57675294 C9.96870588,2.8936 11.0913412,2.90865882 11.7930353,3.61035294 C12.4947294,4.31204706 12.5097882,5.43468235 11.8266353,6.11778824 L10.9277647,7.06969412" id="路径" stroke="#FFFFFF" stroke-linecap="round"></path>
                <path d="M4.45463529,8.82221176 C4.21449412,9.06235294 3.71792941,9.54188235 3.71792941,9.54188235 C3.03477647,10.2249882 3.01623529,11.4425882 3.71792941,12.1442824 C4.41962353,12.8459765 5.54221176,12.8609882 6.22536471,12.1778824 L8.65557647,9.97157647" id="路径" stroke="#FFFFFF" stroke-linecap="round"></path>
                <path d="M6.90004706,8.62512941 C6.57411765,8.2992 6.39632941,7.88244706 6.36785882,7.46108235 C6.33501176,6.97534118 6.50061176,6.48348235 6.86644706,6.11769412" id="路径" stroke="#FFFFFF" stroke-linecap="round"></path>
                <path d="M8.62178824,7.46414118 C9.32348235,8.16583529 9.33854118,9.28847059 8.65538824,9.97157647" id="路径" stroke="#FFFFFF" stroke-linecap="round"></path>
            </g>
        </g>
    </g>
</svg>