<?xml version="1.0" encoding="UTF-8"?>
<svg width="16px" height="16px" viewBox="0 0 16 16" version="1.1" xmlns="http://www.w3.org/2000/svg" xmlns:xlink="http://www.w3.org/1999/xlink">
    <title>接口设置</title>
    <g id="页面-1" stroke="none" stroke-width="1" fill="none" fill-rule="evenodd" stroke-linecap="round" stroke-linejoin="round">
        <g id="参数详情" transform="translate(-47.000000, -328.000000)" stroke="#1890FF" stroke-width="1.2">
            <g id="编组-2备份" transform="translate(48.000000, 325.000000)">
                <g id="接口设置" transform="translate(0.000000, 4.000000)">
                    <path d="M12.0555556,6.22226111 L10.8888889,7.38892778 L6.61111111,3.11115 L7.77777778,1.94448333 C8.36111111,1.36111889 10.5,0.388908333 12.0555556,1.94448333 C13.6111111,3.50003889 12.6388889,5.63888889 12.0555556,6.22226111 Z" id="路径"></path>
                    <line x1="14" y1="0" x2="12.0555556" y2="1.94444444" id="路径"></line>
                    <path d="M1.94444444,7.77773889 L3.11111111,6.61107222 L7.38888889,10.88885 L6.22222222,12.0555167 C5.63888889,12.6388889 3.5,13.6111111 1.94444444,12.0555167 C0.388888889,10.4999611 1.36111111,8.36111111 1.94444444,7.77773889 Z" id="路径"></path>
                    <line x1="6.61111111" y1="10.1111111" x2="8.16666667" y2="8.55555556" id="路径"></line>
                    <line x1="0" y1="14" x2="1.94444444" y2="12.0555556" id="路径"></line>
                    <line x1="3.88888889" y1="7.38888889" x2="5.44444444" y2="5.83333333" id="路径"></line>
                </g>
            </g>
        </g>
    </g>
</svg>