<?xml version="1.0" encoding="UTF-8"?>
<svg width="19px" height="16px" viewBox="0 0 19 16" version="1.1" xmlns="http://www.w3.org/2000/svg" xmlns:xlink="http://www.w3.org/1999/xlink">
    <title>配置累参数</title>
    <g id="页面-1" stroke="none" stroke-width="1" fill="none" fill-rule="evenodd" opacity="0.85" stroke-linecap="round" stroke-linejoin="round">
        <g id="参数详情" transform="translate(-47.000000, -92.000000)" stroke="#000000" stroke-width="1.2">
            <g id="编组" transform="translate(24.000000, 84.000000)">
                <g id="配置累参数" transform="translate(24.000000, 9.000000)">
                    <path d="M12.3529412,2.05882353 L12.3529412,5.35294118 L12.3529412,5.76470588 C11.1361353,5.76470588 10.0426118,6.29250588 9.28879412,7.13168235 C8.6338,7.86083529 8.23529412,8.82506471 8.23529412,9.88235294 C8.23529412,10.1207235 8.25555294,10.3543588 8.29442353,10.5816529 C8.50619412,11.8195412 9.27059412,12.8688412 10.3246294,13.4666 C9.22830588,13.7980706 7.77312941,14 6.17647059,14 C2.76528824,14 0,13.0782235 0,11.9411765 L0,8.64705882 L0,5.35294118 L0,2.05882353" id="路径"></path>
                    <path d="M12.3529412,2.05882353 C12.3529412,3.19587059 9.58765294,4.11764706 6.17647059,4.11764706 C2.76528824,4.11764706 0,3.19587059 0,2.05882353 C0,0.921768235 2.76528824,0 6.17647059,0 C9.58765294,0 12.3529412,0.921768235 12.3529412,2.05882353 Z" id="路径"></path>
                    <path d="M0,8.64705882 C0,9.78410588 2.76528824,10.7058824 6.17647059,10.7058824 C6.92052941,10.7058824 7.63382941,10.6620294 8.29442353,10.5816529" id="路径"></path>
                    <path d="M0,5.35294118 C0,6.48998824 2.76528824,7.41176471 6.17647059,7.41176471 C7.31141765,7.41176471 8.37488235,7.30972941 9.28879412,7.13168235" id="路径"></path>
                    <path d="M16.4705882,9.88235294 C16.4705882,12.1564471 14.6270353,14 12.3529412,14 C11.6155118,14 10.9233353,13.8061412 10.3246294,13.4666 C9.27059412,12.8688412 8.50619412,11.8195412 8.29442353,10.5816529 C8.25555294,10.3543588 8.23529412,10.1207235 8.23529412,9.88235294 C8.23529412,8.82506471 8.6338,7.86083529 9.28879412,7.13168235 C10.0426118,6.29250588 11.1361353,5.76470588 12.3529412,5.76470588 C14.6270353,5.76470588 16.4705882,7.60825882 16.4705882,9.88235294 Z" id="路径"></path>
                    <path d="M12.3530235,8.23529412 L12.3530235,9.88235294 M13.7794176,9.05882353 L12.3530235,9.88235294 M13.7794176,10.7058824 L12.3530235,9.88235294 M12.3530235,11.5294118 L12.3530235,9.88235294 M10.9266294,10.7058824 L12.3530235,9.88235294 M10.9266294,9.05882353 L12.3530235,9.88235294" id="形状"></path>
                </g>
            </g>
        </g>
    </g>
</svg>